<svg width="33" height="33" viewBox="0 0 33 33" fill="none" xmlns="http://www.w3.org/2000/svg">
<rect x="1.07043" y="0.446777" width="31.1719" height="31.1719" rx="15.5859" stroke="#0D062D" stroke-opacity="0.16" stroke-width="0.890625"/>
<path d="M23.4836 12.7931C23.3197 12.1349 22.8368 11.6165 22.2238 11.4405C21.1125 11.1208 16.6564 11.1208 16.6564 11.1208C16.6564 11.1208 12.2003 11.1208 11.089 11.4405C10.4759 11.6165 9.99303 12.1349 9.82914 12.7931C9.53137 13.9862 9.53137 16.4754 9.53137 16.4754C9.53137 16.4754 9.53137 18.9646 9.82914 20.1577C9.99303 20.8159 10.4759 21.3127 11.089 21.4887C12.2003 21.8083 16.6564 21.8083 16.6564 21.8083C16.6564 21.8083 21.1124 21.8083 22.2238 21.4887C22.8368 21.3127 23.3197 20.8159 23.4836 20.1577C23.7814 18.9646 23.7814 16.4754 23.7814 16.4754C23.7814 16.4754 23.7814 13.9862 23.4836 12.7931ZM15.199 18.7354V14.2154L18.9234 16.4755L15.199 18.7354Z" fill="#213A1F"/>
</svg>
