<svg width="33" height="33" viewBox="0 0 33 33" fill="none" xmlns="http://www.w3.org/2000/svg">
<rect x="1.38293" y="0.446777" width="31.1719" height="31.1719" rx="15.5859" stroke="#0D062D" stroke-opacity="0.16" stroke-width="0.890625"/>
<path fill-rule="evenodd" clip-rule="evenodd" d="M14.119 9.33936H19.819C22.18 9.33936 24.094 11.2533 24.094 13.6144V19.3144C24.094 21.6754 22.18 23.5894 19.819 23.5894H14.119C11.7579 23.5894 9.84396 21.6754 9.84396 19.3144V13.6144C9.84396 11.2533 11.7579 9.33936 14.119 9.33936ZM14.119 10.7644C12.545 10.7644 11.269 12.0403 11.269 13.6144V19.3144C11.269 20.8884 12.545 22.1644 14.119 22.1644H19.819C21.393 22.1644 22.669 20.8884 22.669 19.3144V13.6144C22.669 12.0403 21.393 10.7644 19.819 10.7644H14.119ZM16.969 20.0269C15.0014 20.0269 13.4065 18.4319 13.4065 16.4644C13.4065 14.4968 15.0014 12.9019 16.969 12.9019C18.9365 12.9019 20.5315 14.4968 20.5315 16.4644C20.5315 18.4319 18.9365 20.0269 16.969 20.0269ZM16.969 18.6019C18.1495 18.6019 19.1065 17.6449 19.1065 16.4644C19.1065 15.2838 18.1495 14.3269 16.969 14.3269C15.7885 14.3269 14.8315 15.2838 14.8315 16.4644C14.8315 17.6449 15.7885 18.6019 16.969 18.6019ZM20.5315 13.6144C20.138 13.6144 19.819 13.2954 19.819 12.9019C19.819 12.5084 20.138 12.1894 20.5315 12.1894C20.925 12.1894 21.244 12.5084 21.244 12.9019C21.244 13.2954 20.925 13.6144 20.5315 13.6144Z" fill="#213A1F"/>
</svg>
