<svg width="33" height="33" viewBox="0 0 33 33" fill="none" xmlns="http://www.w3.org/2000/svg">
<rect x="0.445312" y="0.446777" width="31.1719" height="31.1719" rx="15.5859" stroke="#0D062D" stroke-opacity="0.16" stroke-width="0.890625"/>
<path d="M12.6514 10.8967C12.6512 11.251 12.5103 11.5907 12.2596 11.8411C12.0089 12.0915 11.6691 12.2321 11.3148 12.2319C10.9604 12.2318 10.6207 12.0908 10.3703 11.8402C10.1199 11.5895 9.97932 11.2496 9.97949 10.8953C9.97967 10.541 10.1206 10.2013 10.3713 9.95087C10.6219 9.70046 10.9618 9.55988 11.3161 9.56006C11.6704 9.56024 12.0101 9.70116 12.2606 9.95182C12.511 10.2025 12.6515 10.5424 12.6514 10.8967ZM12.6914 13.2212H10.0196V21.5842H12.6914V13.2212ZM16.913 13.2212H14.2545V21.5842H16.8863V17.1956C16.8863 14.7508 20.0725 14.5237 20.0725 17.1956V21.5842H22.711V16.2872C22.711 12.1658 17.9951 12.3194 16.8863 14.3434L16.913 13.2212Z" fill="#213A1F"/>
</svg>
