<svg width="203" height="24" viewBox="0 0 203 24" fill="none" xmlns="http://www.w3.org/2000/svg">
<path d="M0 23.3646V0.638747H8.4808C10.866 0.638747 12.8979 1.03628 14.5764 1.83136C16.2549 2.62643 17.5358 3.86322 18.4192 5.54171C19.3247 7.19811 19.7775 9.35144 19.7775 12.0017C19.7775 14.6078 19.3247 16.7501 18.4192 18.4285C17.5358 20.107 16.2549 21.3549 14.5764 22.172C12.8979 22.9671 10.866 23.3646 8.4808 23.3646H0ZM3.14717 20.6481H8.41454C9.67341 20.6481 10.7998 20.4935 11.7936 20.1843C12.7875 19.8531 13.6377 19.3561 14.3445 18.6936C15.0512 18.031 15.5813 17.1807 15.9346 16.1427C16.3101 15.0826 16.4978 13.8237 16.4978 12.3661V11.7035C16.4978 10.2017 16.3101 8.93182 15.9346 7.8938C15.5813 6.8337 15.0512 5.97237 14.3445 5.30981C13.6598 4.64725 12.8206 4.16137 11.8267 3.85217C10.8329 3.52089 9.69549 3.35525 8.41454 3.35525H3.14717V20.6481Z" fill="#213A1F"/>
<path d="M29.1175 23.3646V3.38838H21.3324V0.638747H40.1161V3.38838H32.2647V23.3646H29.1175Z" fill="#213A1F"/>
<path d="M58.9139 23.7622C57.6772 23.7622 56.4846 23.6407 55.3361 23.3978C54.2098 23.1548 53.2049 22.7683 52.3214 22.2383C51.438 21.6861 50.7313 20.9794 50.2012 20.1181C49.6933 19.2567 49.4393 18.1966 49.4393 16.9378C49.4393 16.8274 49.4393 16.7169 49.4393 16.6065C49.4614 16.4961 49.4724 16.3856 49.4724 16.2752H52.6527C52.6527 16.3415 52.6417 16.4519 52.6196 16.6065C52.6196 16.739 52.6196 16.8605 52.6196 16.9709C52.6196 17.8543 52.8846 18.6052 53.4147 19.2236C53.9447 19.842 54.6735 20.3058 55.6011 20.615C56.5508 20.9021 57.6219 21.0457 58.8146 21.0457C59.3446 21.0457 59.8967 21.0125 60.471 20.9463C61.0673 20.88 61.6304 20.7696 62.1605 20.615C62.7126 20.4383 63.1985 20.2175 63.6181 19.9524C64.0598 19.6653 64.4022 19.323 64.6451 18.9255C64.9101 18.5058 65.0426 17.9979 65.0426 17.4016C65.0426 16.6507 64.8218 16.0323 64.3801 15.5464C63.9605 15.0384 63.3973 14.6299 62.6905 14.3207C61.9838 13.9894 61.1777 13.7023 60.2722 13.4593C59.3888 13.1943 58.4722 12.9403 57.5226 12.6974C56.5729 12.4544 55.6453 12.1784 54.7398 11.8692C53.8564 11.5379 53.0613 11.1404 52.3546 10.6766C51.6478 10.1907 51.0736 9.59438 50.6319 8.88765C50.2123 8.18091 50.0025 7.31958 50.0025 6.30365C50.0025 5.35398 50.1902 4.50369 50.5657 3.75279C50.9632 3.00189 51.5374 2.37245 52.2883 1.86449C53.0613 1.33444 54.011 0.9369 55.1373 0.671875C56.2637 0.384766 57.5557 0.241211 59.0133 0.241211C60.2059 0.241211 61.3102 0.373723 62.3261 0.638747C63.3642 0.881687 64.2697 1.26818 65.0426 1.79823C65.8377 2.3062 66.4561 2.95772 66.8978 3.75279C67.3395 4.54786 67.5604 5.50858 67.5604 6.63494V7.03247H64.4463V6.53555C64.4463 5.78465 64.2144 5.14417 63.7506 4.61412C63.2869 4.08407 62.6464 3.67549 61.8292 3.38838C61.0341 3.10127 60.1286 2.95771 59.1127 2.95771C57.7876 2.95771 56.6833 3.09023 55.7999 3.35525C54.9165 3.59819 54.2539 3.9626 53.8122 4.44848C53.3926 4.91227 53.1828 5.44232 53.1828 6.03863C53.1828 6.72328 53.3926 7.2975 53.8122 7.76129C54.2539 8.22509 54.8281 8.61158 55.5349 8.92078C56.2416 9.20789 57.0477 9.47291 57.9532 9.71585C58.8587 9.95879 59.7753 10.2128 60.7029 10.4778C61.6525 10.7207 62.5691 11.0078 63.4525 11.3391C64.358 11.6483 65.1641 12.0459 65.8708 12.5317C66.5997 12.9955 67.1739 13.5918 67.5935 14.3207C68.0131 15.0274 68.2229 15.8998 68.2229 16.9378C68.2229 18.55 67.8254 19.8641 67.0303 20.88C66.2353 21.8739 65.142 22.6027 63.7506 23.0665C62.3593 23.5303 60.747 23.7622 58.9139 23.7622Z" fill="#213A1F"/>
<path d="M78.2476 23.3646V13.9231L69.303 0.638747H72.9139L79.8377 11.1404H80.0033L86.894 0.638747H90.3393L81.4279 13.9231V23.3646H78.2476Z" fill="#213A1F"/>
<path d="M100.842 23.7622C99.6049 23.7622 98.4123 23.6407 97.2639 23.3978C96.1375 23.1548 95.1326 22.7683 94.2492 22.2383C93.3658 21.6861 92.6591 20.9794 92.129 20.1181C91.621 19.2567 91.3671 18.1966 91.3671 16.9378C91.3671 16.8274 91.3671 16.7169 91.3671 16.6065C91.3892 16.4961 91.4002 16.3856 91.4002 16.2752H94.5805C94.5805 16.3415 94.5695 16.4519 94.5474 16.6065C94.5474 16.739 94.5474 16.8605 94.5474 16.9709C94.5474 17.8543 94.8124 18.6052 95.3424 19.2236C95.8725 19.842 96.6013 20.3058 97.5289 20.615C98.4786 20.9021 99.5497 21.0457 100.742 21.0457C101.272 21.0457 101.825 21.0125 102.399 20.9463C102.995 20.88 103.558 20.7696 104.088 20.615C104.64 20.4383 105.126 20.2175 105.546 19.9524C105.988 19.6653 106.33 19.323 106.573 18.9255C106.838 18.5058 106.97 17.9979 106.97 17.4016C106.97 16.6507 106.75 16.0323 106.308 15.5464C105.888 15.0384 105.325 14.6299 104.618 14.3207C103.912 13.9894 103.105 13.7023 102.2 13.4593C101.317 13.1943 100.4 12.9403 99.4503 12.6974C98.5007 12.4544 97.5731 12.1784 96.6676 11.8692C95.7841 11.5379 94.9891 11.1404 94.2823 10.6766C93.5756 10.1907 93.0014 9.59438 92.5597 8.88765C92.1401 8.18091 91.9302 7.31958 91.9302 6.30365C91.9302 5.35398 92.118 4.50369 92.4934 3.75279C92.891 3.00189 93.4652 2.37245 94.2161 1.86449C94.9891 1.33444 95.9387 0.9369 97.0651 0.671875C98.1915 0.384766 99.4835 0.241211 100.941 0.241211C102.134 0.241211 103.238 0.373723 104.254 0.638747C105.292 0.881687 106.197 1.26818 106.97 1.79823C107.765 2.3062 108.384 2.95772 108.826 3.75279C109.267 4.54786 109.488 5.50858 109.488 6.63494V7.03247H106.374V6.53555C106.374 5.78465 106.142 5.14417 105.678 4.61412C105.215 4.08407 104.574 3.67549 103.757 3.38838C102.962 3.10127 102.056 2.95771 101.04 2.95771C99.7153 2.95771 98.6111 3.09023 97.7277 3.35525C96.8442 3.59819 96.1817 3.9626 95.74 4.44848C95.3204 4.91227 95.1105 5.44232 95.1105 6.03863C95.1105 6.72328 95.3204 7.2975 95.74 7.76129C96.1817 8.22509 96.7559 8.61158 97.4626 8.92078C98.1694 9.20789 98.9755 9.47291 99.881 9.71585C100.786 9.95879 101.703 10.2128 102.631 10.4778C103.58 10.7207 104.497 11.0078 105.38 11.3391C106.286 11.6483 107.092 12.0459 107.799 12.5317C108.527 12.9955 109.102 13.5918 109.521 14.3207C109.941 15.0274 110.151 15.8998 110.151 16.9378C110.151 18.55 109.753 19.8641 108.958 20.88C108.163 21.8739 107.07 22.6027 105.678 23.0665C104.287 23.5303 102.675 23.7622 100.842 23.7622Z" fill="#213A1F"/>
<path d="M120.349 23.3646V3.38838H112.564V0.638747H131.348V3.38838H123.496V23.3646H120.349Z" fill="#213A1F"/>
<path d="M134.874 23.3646V0.638747H152.366V3.35525H138.021V10.3784H150.908V13.0949H138.021V20.6481H152.565V23.3646H134.874Z" fill="#213A1F"/>
<path d="M157.294 23.3646V0.638747H162.164L167.332 15.3808C167.464 15.7783 167.597 16.22 167.729 16.7059C167.884 17.1697 168.016 17.6114 168.127 18.031C168.259 18.4506 168.359 18.815 168.425 19.1242H168.657C168.723 18.793 168.811 18.4175 168.922 17.9979C169.032 17.5562 169.154 17.1034 169.286 16.6396C169.419 16.1758 169.54 15.7562 169.651 15.3808L174.819 0.638747H179.655V23.3646H176.508V10.0471C176.508 9.36248 176.519 8.62262 176.541 7.82755C176.563 7.01039 176.585 6.27053 176.608 5.60796C176.63 4.92332 176.641 4.43744 176.641 4.15033H176.376C176.309 4.43744 176.199 4.84602 176.044 5.37607C175.89 5.88403 175.724 6.42512 175.547 6.99934C175.393 7.55148 175.249 8.0484 175.117 8.49011L169.783 23.3646H167.067L161.733 8.49011C161.6 8.11466 161.457 7.68399 161.302 7.19811C161.17 6.69015 161.026 6.17114 160.872 5.64109C160.739 5.11104 160.607 4.61412 160.474 4.15033H160.242C160.264 4.63621 160.275 5.24356 160.275 5.97237C160.297 6.67911 160.308 7.39688 160.308 8.1257C160.331 8.83243 160.342 9.47291 160.342 10.0471V23.3646H157.294Z" fill="#213A1F"/>
<path d="M193.691 23.7622C192.454 23.7622 191.262 23.6407 190.113 23.3978C188.987 23.1548 187.982 22.7683 187.098 22.2383C186.215 21.6861 185.508 20.9794 184.978 20.1181C184.47 19.2567 184.216 18.1966 184.216 16.9378C184.216 16.8274 184.216 16.7169 184.216 16.6065C184.238 16.4961 184.249 16.3856 184.249 16.2752H187.43C187.43 16.3415 187.419 16.4519 187.397 16.6065C187.397 16.739 187.397 16.8605 187.397 16.9709C187.397 17.8543 187.662 18.6052 188.192 19.2236C188.722 19.842 189.451 20.3058 190.378 20.615C191.328 20.9021 192.399 21.0457 193.592 21.0457C194.122 21.0457 194.674 21.0125 195.248 20.9463C195.844 20.88 196.408 20.7696 196.938 20.615C197.49 20.4383 197.976 20.2175 198.395 19.9524C198.837 19.6653 199.179 19.323 199.422 18.9255C199.687 18.5058 199.82 17.9979 199.82 17.4016C199.82 16.6507 199.599 16.0323 199.157 15.5464C198.738 15.0384 198.174 14.6299 197.468 14.3207C196.761 13.9894 195.955 13.7023 195.049 13.4593C194.166 13.1943 193.249 12.9403 192.3 12.6974C191.35 12.4544 190.422 12.1784 189.517 11.8692C188.633 11.5379 187.838 11.1404 187.132 10.6766C186.425 10.1907 185.851 9.59438 185.409 8.88765C184.989 8.18091 184.78 7.31958 184.78 6.30365C184.78 5.35398 184.967 4.50369 185.343 3.75279C185.74 3.00189 186.314 2.37245 187.065 1.86449C187.838 1.33444 188.788 0.9369 189.914 0.671875C191.041 0.384766 192.333 0.241211 193.79 0.241211C194.983 0.241211 196.087 0.373723 197.103 0.638747C198.141 0.881687 199.047 1.26818 199.82 1.79823C200.615 2.3062 201.233 2.95772 201.675 3.75279C202.117 4.54786 202.337 5.50858 202.337 6.63494V7.03247H199.223V6.53555C199.223 5.78465 198.992 5.14417 198.528 4.61412C198.064 4.08407 197.423 3.67549 196.606 3.38838C195.811 3.10127 194.906 2.95771 193.89 2.95771C192.565 2.95771 191.46 3.09023 190.577 3.35525C189.694 3.59819 189.031 3.9626 188.589 4.44848C188.17 4.91227 187.96 5.44232 187.96 6.03863C187.96 6.72328 188.17 7.2975 188.589 7.76129C189.031 8.22509 189.605 8.61158 190.312 8.92078C191.019 9.20789 191.825 9.47291 192.73 9.71585C193.636 9.95879 194.552 10.2128 195.48 10.4778C196.43 10.7207 197.346 11.0078 198.23 11.3391C199.135 11.6483 199.941 12.0459 200.648 12.5317C201.377 12.9955 201.951 13.5918 202.371 14.3207C202.79 15.0274 203 15.8998 203 16.9378C203 18.55 202.602 19.8641 201.807 20.88C201.012 21.8739 199.919 22.6027 198.528 23.0665C197.136 23.5303 195.524 23.7622 193.691 23.7622Z" fill="#213A1F"/>
</svg>
