<svg width="203" height="24" viewBox="0 0 203 24" fill="none" xmlns="http://www.w3.org/2000/svg">
<path d="M0 23.363V0.637069H8.4808C10.866 0.637069 12.8979 1.03461 14.5764 1.82968C16.2549 2.62476 17.5358 3.86154 18.4192 5.54003C19.3247 7.19643 19.7775 9.34976 19.7775 12C19.7775 14.6061 19.3247 16.7484 18.4192 18.4269C17.5358 20.1054 16.2549 21.3532 14.5764 22.1703C12.8979 22.9654 10.866 23.363 8.4808 23.363H0ZM3.14717 20.6464H8.41454C9.67341 20.6464 10.7998 20.4918 11.7936 20.1827C12.7875 19.8514 13.6377 19.3545 14.3445 18.6919C15.0512 18.0293 15.5813 17.179 15.9346 16.141C16.3101 15.0809 16.4978 13.8221 16.4978 12.3644V11.7019C16.4978 10.2001 16.3101 8.93014 15.9346 7.89213C15.5813 6.83203 15.0512 5.97069 14.3445 5.30813C13.6598 4.64557 12.8206 4.15969 11.8267 3.8505C10.8329 3.51921 9.69549 3.35357 8.41454 3.35357H3.14717V20.6464Z" fill="#FCFCEA"/>
<path d="M29.1175 23.363V3.3867H21.3324V0.637069H40.1161V3.3867H32.2647V23.363H29.1175Z" fill="#FCFCEA"/>
<path d="M58.9139 23.7605C57.6772 23.7605 56.4846 23.639 55.3361 23.3961C54.2098 23.1531 53.2049 22.7666 52.3214 22.2366C51.438 21.6845 50.7313 20.9777 50.2012 20.1164C49.6933 19.2551 49.4393 18.195 49.4393 16.9361C49.4393 16.8257 49.4393 16.7152 49.4393 16.6048C49.4614 16.4944 49.4724 16.384 49.4724 16.2735H52.6527C52.6527 16.3398 52.6417 16.4502 52.6196 16.6048C52.6196 16.7373 52.6196 16.8588 52.6196 16.9692C52.6196 17.8526 52.8846 18.6035 53.4147 19.2219C53.9447 19.8403 54.6735 20.3041 55.6011 20.6133C56.5508 20.9004 57.6219 21.044 58.8146 21.044C59.3446 21.044 59.8967 21.0109 60.471 20.9446C61.0673 20.8783 61.6304 20.7679 62.1605 20.6133C62.7126 20.4366 63.1985 20.2158 63.6181 19.9508C64.0598 19.6636 64.4022 19.3213 64.6451 18.9238C64.9101 18.5042 65.0426 17.9962 65.0426 17.3999C65.0426 16.649 64.8218 16.0306 64.3801 15.5447C63.9605 15.0368 63.3973 14.6282 62.6905 14.319C61.9838 13.9877 61.1777 13.7006 60.2722 13.4576C59.3888 13.1926 58.4722 12.9386 57.5226 12.6957C56.5729 12.4528 55.6453 12.1767 54.7398 11.8675C53.8564 11.5362 53.0613 11.1387 52.3546 10.6749C51.6478 10.189 51.0736 9.5927 50.6319 8.88597C50.2123 8.17924 50.0025 7.3179 50.0025 6.30198C50.0025 5.3523 50.1902 4.50202 50.5657 3.75111C50.9632 3.00021 51.5374 2.37077 52.2883 1.86281C53.0613 1.33276 54.011 0.935222 55.1373 0.670196C56.2637 0.383087 57.5557 0.239532 59.0133 0.239532C60.2059 0.239532 61.3102 0.372045 62.3261 0.637069C63.3642 0.880009 64.2697 1.2665 65.0426 1.79655C65.8377 2.30452 66.4561 2.95604 66.8978 3.75111C67.3395 4.54619 67.5604 5.5069 67.5604 6.63326V7.03079H64.4463V6.53387C64.4463 5.78297 64.2144 5.14249 63.7506 4.61244C63.2869 4.08239 62.6464 3.67381 61.8292 3.3867C61.0341 3.09959 60.1286 2.95604 59.1127 2.95604C57.7876 2.95604 56.6833 3.08855 55.7999 3.35357C54.9165 3.59651 54.2539 3.96092 53.8122 4.4468C53.3926 4.9106 53.1828 5.44065 53.1828 6.03695C53.1828 6.7216 53.3926 7.29582 53.8122 7.75961C54.2539 8.22341 54.8281 8.6099 55.5349 8.9191C56.2416 9.20621 57.0477 9.47123 57.9532 9.71417C58.8587 9.95711 59.7753 10.2111 60.7029 10.4761C61.6525 10.7191 62.5691 11.0062 63.4525 11.3374C64.358 11.6466 65.1641 12.0442 65.8708 12.5301C66.5997 12.9939 67.1739 13.5902 67.5935 14.319C68.0131 15.0257 68.2229 15.8981 68.2229 16.9361C68.2229 18.5483 67.8254 19.8624 67.0303 20.8783C66.2353 21.8722 65.142 22.601 63.7506 23.0648C62.3593 23.5286 60.747 23.7605 58.9139 23.7605Z" fill="#FCFCEA"/>
<path d="M78.2476 23.363V13.9214L69.303 0.637069H72.9139L79.8377 11.1387H80.0033L86.894 0.637069H90.3393L81.4279 13.9214V23.363H78.2476Z" fill="#FCFCEA"/>
<path d="M100.842 23.7605C99.6049 23.7605 98.4123 23.639 97.2639 23.3961C96.1375 23.1531 95.1326 22.7666 94.2492 22.2366C93.3658 21.6845 92.6591 20.9777 92.129 20.1164C91.621 19.2551 91.3671 18.195 91.3671 16.9361C91.3671 16.8257 91.3671 16.7152 91.3671 16.6048C91.3892 16.4944 91.4002 16.384 91.4002 16.2735H94.5805C94.5805 16.3398 94.5695 16.4502 94.5474 16.6048C94.5474 16.7373 94.5474 16.8588 94.5474 16.9692C94.5474 17.8526 94.8124 18.6035 95.3424 19.2219C95.8725 19.8403 96.6013 20.3041 97.5289 20.6133C98.4786 20.9004 99.5497 21.044 100.742 21.044C101.272 21.044 101.825 21.0109 102.399 20.9446C102.995 20.8783 103.558 20.7679 104.088 20.6133C104.64 20.4366 105.126 20.2158 105.546 19.9508C105.988 19.6636 106.33 19.3213 106.573 18.9238C106.838 18.5042 106.97 17.9962 106.97 17.3999C106.97 16.649 106.75 16.0306 106.308 15.5447C105.888 15.0368 105.325 14.6282 104.618 14.319C103.912 13.9877 103.105 13.7006 102.2 13.4576C101.317 13.1926 100.4 12.9386 99.4503 12.6957C98.5007 12.4528 97.5731 12.1767 96.6676 11.8675C95.7841 11.5362 94.9891 11.1387 94.2823 10.6749C93.5756 10.189 93.0014 9.5927 92.5597 8.88597C92.1401 8.17924 91.9302 7.3179 91.9302 6.30198C91.9302 5.3523 92.118 4.50202 92.4934 3.75111C92.891 3.00021 93.4652 2.37077 94.2161 1.86281C94.9891 1.33276 95.9387 0.935222 97.0651 0.670196C98.1915 0.383087 99.4835 0.239532 100.941 0.239532C102.134 0.239532 103.238 0.372045 104.254 0.637069C105.292 0.880009 106.197 1.2665 106.97 1.79655C107.765 2.30452 108.384 2.95604 108.826 3.75111C109.267 4.54619 109.488 5.5069 109.488 6.63326V7.03079H106.374V6.53387C106.374 5.78297 106.142 5.14249 105.678 4.61244C105.215 4.08239 104.574 3.67381 103.757 3.3867C102.962 3.09959 102.056 2.95604 101.04 2.95604C99.7153 2.95604 98.6111 3.08855 97.7277 3.35357C96.8442 3.59651 96.1817 3.96092 95.74 4.4468C95.3204 4.9106 95.1105 5.44065 95.1105 6.03695C95.1105 6.7216 95.3204 7.29582 95.74 7.75961C96.1817 8.22341 96.7559 8.6099 97.4626 8.9191C98.1694 9.20621 98.9755 9.47123 99.881 9.71417C100.786 9.95711 101.703 10.2111 102.631 10.4761C103.58 10.7191 104.497 11.0062 105.38 11.3374C106.286 11.6466 107.092 12.0442 107.799 12.5301C108.527 12.9939 109.102 13.5902 109.521 14.319C109.941 15.0257 110.151 15.8981 110.151 16.9361C110.151 18.5483 109.753 19.8624 108.958 20.8783C108.163 21.8722 107.07 22.601 105.678 23.0648C104.287 23.5286 102.675 23.7605 100.842 23.7605Z" fill="#FCFCEA"/>
<path d="M120.349 23.363V3.3867H112.564V0.637069H131.348V3.3867H123.496V23.363H120.349Z" fill="#FCFCEA"/>
<path d="M134.874 23.363V0.637069H152.366V3.35357H138.021V10.3767H150.908V13.0932H138.021V20.6464H152.565V23.363H134.874Z" fill="#FCFCEA"/>
<path d="M157.294 23.363V0.637069H162.164L167.332 15.3791C167.464 15.7766 167.597 16.2183 167.729 16.7042C167.884 17.168 168.016 17.6097 168.127 18.0293C168.259 18.4489 168.359 18.8134 168.425 19.1226H168.657C168.723 18.7913 168.811 18.4158 168.922 17.9962C169.032 17.5545 169.154 17.1017 169.286 16.6379C169.419 16.1742 169.54 15.7545 169.651 15.3791L174.819 0.637069H179.655V23.363H176.508V10.0455C176.508 9.3608 176.519 8.62094 176.541 7.82587C176.563 7.00871 176.585 6.26885 176.608 5.60629C176.63 4.92164 176.641 4.43576 176.641 4.14865H176.376C176.309 4.43576 176.199 4.84434 176.044 5.37439C175.89 5.88235 175.724 6.42345 175.547 6.99767C175.393 7.5498 175.249 8.04672 175.117 8.48843L169.783 23.363H167.067L161.733 8.48843C161.6 8.11298 161.457 7.68231 161.302 7.19643C161.17 6.68847 161.026 6.16946 160.872 5.63941C160.739 5.10936 160.607 4.61244 160.474 4.14865H160.242C160.264 4.63453 160.275 5.24188 160.275 5.97069C160.297 6.67743 160.308 7.3952 160.308 8.12402C160.331 8.83076 160.342 9.47123 160.342 10.0455V23.363H157.294Z" fill="#FCFCEA"/>
<path d="M193.691 23.7605C192.454 23.7605 191.262 23.639 190.113 23.3961C188.987 23.1531 187.982 22.7666 187.098 22.2366C186.215 21.6845 185.508 20.9777 184.978 20.1164C184.47 19.2551 184.216 18.195 184.216 16.9361C184.216 16.8257 184.216 16.7152 184.216 16.6048C184.238 16.4944 184.249 16.384 184.249 16.2735H187.43C187.43 16.3398 187.419 16.4502 187.397 16.6048C187.397 16.7373 187.397 16.8588 187.397 16.9692C187.397 17.8526 187.662 18.6035 188.192 19.2219C188.722 19.8403 189.451 20.3041 190.378 20.6133C191.328 20.9004 192.399 21.044 193.592 21.044C194.122 21.044 194.674 21.0109 195.248 20.9446C195.844 20.8783 196.408 20.7679 196.938 20.6133C197.49 20.4366 197.976 20.2158 198.395 19.9508C198.837 19.6636 199.179 19.3213 199.422 18.9238C199.687 18.5042 199.82 17.9962 199.82 17.3999C199.82 16.649 199.599 16.0306 199.157 15.5447C198.738 15.0368 198.174 14.6282 197.468 14.319C196.761 13.9877 195.955 13.7006 195.049 13.4576C194.166 13.1926 193.249 12.9386 192.3 12.6957C191.35 12.4528 190.422 12.1767 189.517 11.8675C188.633 11.5362 187.838 11.1387 187.132 10.6749C186.425 10.189 185.851 9.5927 185.409 8.88597C184.989 8.17924 184.78 7.3179 184.78 6.30198C184.78 5.3523 184.967 4.50202 185.343 3.75111C185.74 3.00021 186.314 2.37077 187.065 1.86281C187.838 1.33276 188.788 0.935222 189.914 0.670196C191.041 0.383087 192.333 0.239532 193.79 0.239532C194.983 0.239532 196.087 0.372045 197.103 0.637069C198.141 0.880009 199.047 1.2665 199.82 1.79655C200.615 2.30452 201.233 2.95604 201.675 3.75111C202.117 4.54619 202.337 5.5069 202.337 6.63326V7.03079H199.223V6.53387C199.223 5.78297 198.992 5.14249 198.528 4.61244C198.064 4.08239 197.423 3.67381 196.606 3.3867C195.811 3.09959 194.906 2.95604 193.89 2.95604C192.565 2.95604 191.46 3.08855 190.577 3.35357C189.694 3.59651 189.031 3.96092 188.589 4.4468C188.17 4.9106 187.96 5.44065 187.96 6.03695C187.96 6.7216 188.17 7.29582 188.589 7.75961C189.031 8.22341 189.605 8.6099 190.312 8.9191C191.019 9.20621 191.825 9.47123 192.73 9.71417C193.636 9.95711 194.552 10.2111 195.48 10.4761C196.43 10.7191 197.346 11.0062 198.23 11.3374C199.135 11.6466 199.941 12.0442 200.648 12.5301C201.377 12.9939 201.951 13.5902 202.371 14.319C202.79 15.0257 203 15.8981 203 16.9361C203 18.5483 202.602 19.8624 201.807 20.8783C201.012 21.8722 199.919 22.601 198.528 23.0648C197.136 23.5286 195.524 23.7605 193.691 23.7605Z" fill="#FCFCEA"/>
</svg>
