<svg width="70" height="70" viewBox="0 0 70 70" fill="none" xmlns="http://www.w3.org/2000/svg">
<rect x="-1.52588e-05" width="70" height="70" rx="35" fill="#A1AF9F" fill-opacity="0.16"/>
<path d="M34.7737 42.1747C38.7723 42.1747 42.0137 38.9625 42.0137 35C42.0137 31.0374 38.7723 27.8252 34.7737 27.8252C30.7752 27.8252 27.5337 31.0374 27.5337 35C27.5337 38.9625 30.7752 42.1747 34.7737 42.1747Z" stroke="#213A1F" stroke-width="2"/>
<path d="M23.235 26.0314C24.8594 26.0314 26.1762 24.7264 26.1762 23.1167C26.1762 21.5069 24.8594 20.2019 23.235 20.2019C21.6106 20.2019 20.2937 21.5069 20.2937 23.1167C20.2937 24.7264 21.6106 26.0314 23.235 26.0314Z" stroke="#213A1F" stroke-width="2"/>
<path d="M35 21.9958C36.6244 21.9958 37.9412 20.6908 37.9412 19.081C37.9412 17.4712 36.6244 16.1663 35 16.1663C33.3756 16.1663 32.0587 17.4712 32.0587 19.081C32.0587 20.6908 33.3756 21.9958 35 21.9958Z" stroke="#213A1F" stroke-width="2"/>
<path d="M35 53.8339C36.6244 53.8339 37.9412 52.5289 37.9412 50.9191C37.9412 49.3094 36.6244 48.0044 35 48.0044C33.3756 48.0044 32.0587 49.3094 32.0587 50.9191C32.0587 52.5289 33.3756 53.8339 35 53.8339Z" stroke="#213A1F" stroke-width="2"/>
<path d="M23.235 49.798C24.8594 49.798 26.1762 48.493 26.1762 46.8833C26.1762 45.2735 24.8594 43.9685 23.235 43.9685C21.6106 43.9685 20.2937 45.2735 20.2937 46.8833C20.2937 48.493 21.6106 49.798 23.235 49.798Z" stroke="#213A1F" stroke-width="2"/>
<path d="M46.3125 26.0314C47.9369 26.0314 49.2537 24.7264 49.2537 23.1167C49.2537 21.5069 47.9369 20.2019 46.3125 20.2019C44.6881 20.2019 43.3712 21.5069 43.3712 23.1167C43.3712 24.7264 44.6881 26.0314 46.3125 26.0314Z" stroke="#213A1F" stroke-width="2"/>
<path d="M46.3125 49.798C47.9369 49.798 49.2537 48.493 49.2537 46.8833C49.2537 45.2735 47.9369 43.9685 46.3125 43.9685C44.6881 43.9685 43.3712 45.2735 43.3712 46.8833C43.3712 48.493 44.6881 49.798 46.3125 49.798Z" stroke="#213A1F" stroke-width="2"/>
<path d="M51.7425 37.6906C53.3669 37.6906 54.6837 36.3856 54.6837 34.7758C54.6837 33.1661 53.3669 31.8611 51.7425 31.8611C50.1181 31.8611 48.8012 33.1661 48.8012 34.7758C48.8012 36.3856 50.1181 37.6906 51.7425 37.6906Z" stroke="#213A1F" stroke-width="2"/>
<path d="M18.2575 37.6906C19.8819 37.6906 21.1987 36.3856 21.1987 34.7758C21.1987 33.1661 19.8819 31.8611 18.2575 31.8611C16.6331 31.8611 15.3162 33.1661 15.3162 34.7758C15.3162 36.3856 16.6331 37.6906 18.2575 37.6906Z" stroke="#213A1F" stroke-width="2"/>
<path d="M34.7737 21.9958V27.5829M34.7737 48.0044V42.61M44.1071 25.6853L40.1107 29.6457M25.5032 44.1216L29.3618 40.2978M47.8962 35.0001H42.2584M21.6512 35.0001H27.0946M44.1071 44.1214L40.1107 40.161M25.5032 25.6851L29.3618 29.5089" stroke="#213A1F" stroke-width="2" stroke-linecap="round"/>
<path d="M34.7298 32.0468V30.1492H35.3581V32.0468H34.7298ZM34.7298 39.8507V37.8526H35.3581V39.8507H34.7298ZM34.9937 38.3804C34.5329 38.3804 34.1266 38.3343 33.7747 38.2422C33.4229 38.1416 33.1296 38.0034 32.895 37.8275C32.6605 37.6432 32.4803 37.4295 32.3547 37.1866C32.2374 36.9352 32.1787 36.6588 32.1787 36.3572C32.1787 36.3153 32.1787 36.2776 32.1787 36.2441C32.1871 36.2106 32.1913 36.1812 32.1913 36.1561H33.4857C33.4857 36.1812 33.4857 36.2064 33.4857 36.2315C33.4857 36.2483 33.4857 36.2692 33.4857 36.2943C33.4857 36.554 33.5569 36.7635 33.6993 36.9227C33.8417 37.0735 34.0302 37.1824 34.2648 37.2494C34.5078 37.3081 34.7717 37.3374 35.0565 37.3374C35.3079 37.3374 35.5383 37.3081 35.7477 37.2494C35.9655 37.1908 36.1415 37.0986 36.2755 36.9729C36.4179 36.8389 36.4892 36.6755 36.4892 36.4828C36.4892 36.2315 36.4012 36.0388 36.2252 35.9048C36.0493 35.7707 35.8189 35.666 35.5341 35.5906C35.2492 35.5068 34.9518 35.423 34.6418 35.3393C34.3654 35.2639 34.0889 35.1801 33.8124 35.0879C33.5443 34.9958 33.3014 34.8827 33.0836 34.7486C32.8657 34.6062 32.6898 34.4261 32.5557 34.2082C32.4217 33.982 32.3547 33.7056 32.3547 33.3788C32.3547 33.0689 32.4217 32.7966 32.5557 32.562C32.6898 32.3274 32.8741 32.1305 33.1087 31.9714C33.3516 31.8122 33.6365 31.6907 33.9632 31.6069C34.2983 31.5231 34.6628 31.4812 35.0565 31.4812C35.4671 31.4812 35.8315 31.5273 36.1498 31.6195C36.4682 31.7033 36.7363 31.8289 36.9541 31.9965C37.1803 32.1557 37.3521 32.3442 37.4694 32.562C37.5866 32.7798 37.6453 33.0144 37.6453 33.2657C37.6453 33.3244 37.6411 33.3788 37.6327 33.4291C37.6327 33.4794 37.6327 33.5129 37.6327 33.5296H36.3509V33.4165C36.3509 33.249 36.3048 33.0982 36.2127 32.9641C36.1205 32.8301 35.9739 32.7212 35.7728 32.6374C35.5802 32.5536 35.3204 32.5117 34.9937 32.5117C34.7759 32.5117 34.5832 32.5327 34.4156 32.5746C34.2481 32.6081 34.1098 32.6625 34.0009 32.7379C33.892 32.805 33.8082 32.8845 33.7496 32.9767C33.6993 33.0605 33.6742 33.161 33.6742 33.2783C33.6742 33.471 33.7412 33.6218 33.8753 33.7307C34.0177 33.8312 34.202 33.9192 34.4282 33.9946C34.6544 34.0616 34.8974 34.137 35.1571 34.2208C35.4587 34.3046 35.7645 34.3926 36.0744 34.4847C36.3844 34.5685 36.6693 34.6774 36.929 34.8114C37.1971 34.9455 37.4107 35.134 37.5699 35.377C37.7375 35.6115 37.8212 35.9215 37.8212 36.3069C37.8212 36.6755 37.75 36.9939 37.6076 37.262C37.4652 37.5217 37.2641 37.7353 37.0044 37.9029C36.7531 38.0704 36.4556 38.1919 36.1121 38.2673C35.7687 38.3427 35.3958 38.3804 34.9937 38.3804Z" fill="#213A1F"/>
</svg>
