<svg width="70" height="70" viewBox="0 0 70 70" fill="none" xmlns="http://www.w3.org/2000/svg">
<rect x="-1.52588e-05" width="70" height="70" rx="35" fill="#A1AF9F" fill-opacity="0.16"/>
<path d="M30.9762 47.141L27.495 45.5938V44.087C28.4071 43.4462 29.048 42.4359 29.1923 41.2813C30.2026 41.0331 30.9588 40.1267 30.9588 39.0414V37.3094C30.9588 34.1285 28.3667 31.5364 25.1858 31.5364C22.0048 31.5364 19.4127 34.1285 19.4127 37.3094V39.0414C19.4127 40.1267 20.169 41.0331 21.1793 41.2813C21.3236 42.4359 21.9644 43.4462 22.8766 44.087V45.5938L19.3954 47.141C18.3562 47.6086 17.6808 48.642 17.6808 49.7792V51.7421C17.6808 52.0596 17.9406 52.3194 18.2581 52.3194H32.1135C32.431 52.3194 32.6908 52.0596 32.6908 51.7421V49.7792C32.6908 48.642 32.0153 47.6086 30.9762 47.141ZM26.3404 45.6573L25.1858 46.4309L24.0312 45.6573V44.647C24.3949 44.7509 24.7817 44.8144 25.1858 44.8144C25.5899 44.8144 25.9767 44.7509 26.3404 44.647V45.6573ZM25.1858 43.6598C23.5924 43.6598 22.2993 42.3666 22.2993 40.7733V38.4641H24.6085C24.7643 38.4641 24.9087 38.4005 25.0184 38.2966L25.7631 37.5461L26.5078 38.2966C26.6175 38.4005 26.7618 38.4641 26.9177 38.4641H28.0723V40.7733C28.0723 42.3666 26.7791 43.6598 25.1858 43.6598Z" fill="#213A1F"/>
<path d="M50.01 17.6809H28.0723C26.7965 17.6809 25.7631 18.7143 25.7631 19.9901V29.8909C25.7631 30.2085 26.0229 30.4682 26.3404 30.4682C26.6579 30.4682 26.9177 30.2085 26.9177 29.8909V19.9901C26.9177 19.3551 27.4373 18.8355 28.0723 18.8355H50.01C50.645 18.8355 51.1646 19.3551 51.1646 19.9901V50.01C51.1646 50.6451 50.645 51.1647 50.01 51.1647H34.4227C34.1052 51.1647 33.8454 51.4244 33.8454 51.742C33.8454 52.0595 34.1052 52.3193 34.4227 52.3193H50.01C51.2858 52.3193 52.3192 51.2859 52.3192 50.01V19.9901C52.3192 18.7143 51.2858 17.6809 50.01 17.6809Z" fill="#213A1F"/>
<path d="M38.7352 34.3318C38.8275 34.3895 38.9372 34.4184 39.0411 34.4184C39.145 34.4184 39.2547 34.3895 39.3471 34.3318L41.3734 33.0675C43.14 31.9648 44.2369 29.95 44.2369 27.8082V24.2232C44.2369 23.9922 44.0983 23.7786 43.8789 23.692L39.2605 21.7696C39.1162 21.7119 38.9603 21.7119 38.816 21.7696L34.1975 23.692C33.9839 23.7844 33.8396 23.9922 33.8396 24.2232V27.8082C33.8396 29.95 34.9365 31.9648 36.703 33.0675L38.7294 34.3318H38.7352ZM36.322 27.0866C36.5472 26.8615 36.9109 26.8615 37.136 27.0866L38.4234 28.374L40.9058 25.3951C41.1079 25.1526 41.4716 25.118 41.7198 25.32C41.9623 25.5221 41.9969 25.8858 41.7949 26.1341L38.9083 29.5979C38.8044 29.7249 38.6543 29.7999 38.4927 29.8057C38.4869 29.8057 38.4754 29.8057 38.4696 29.8057C38.3195 29.8057 38.1694 29.748 38.0597 29.6383L36.3278 27.9064C36.1026 27.6812 36.1026 27.3175 36.3278 27.0924L36.322 27.0866ZM32.1134 37.3049C32.1134 37.6224 32.3732 37.8822 32.6908 37.8822H45.3915C45.709 37.8822 45.9688 37.6224 45.9688 37.3049C45.9688 36.9874 45.709 36.7276 45.3915 36.7276H32.6908C32.3732 36.7276 32.1134 36.9874 32.1134 37.3049ZM32.6908 41.3461H45.3915C45.709 41.3461 45.9688 41.0863 45.9688 40.7688C45.9688 40.4512 45.709 40.1915 45.3915 40.1915H32.6908C32.3732 40.1915 32.1134 40.4512 32.1134 40.7688C32.1134 41.0863 32.3732 41.3461 32.6908 41.3461ZM45.9688 44.2326C45.9688 43.9151 45.709 43.6553 45.3915 43.6553H32.6908C32.3732 43.6553 32.1134 43.9151 32.1134 44.2326C32.1134 44.5501 32.3732 44.8099 32.6908 44.8099H45.3915C45.709 44.8099 45.9688 44.5501 45.9688 44.2326ZM36.7319 47.1191C36.4144 47.1191 36.1546 47.3789 36.1546 47.6964C36.1546 48.014 36.4144 48.2737 36.7319 48.2737H41.3503C41.6679 48.2737 41.9277 48.014 41.9277 47.6964C41.9277 47.3789 41.6679 47.1191 41.3503 47.1191H36.7319Z" fill="#213A1F"/>
</svg>
