<svg width="70" height="70" viewBox="0 0 70 70" fill="none" xmlns="http://www.w3.org/2000/svg">
<rect x="-1.52588e-05" width="70" height="70" rx="35" fill="#A1AF9F" fill-opacity="0.16"/>
<path d="M47.8668 16.1764H22.808C21.5139 16.1764 20.5139 17.2352 20.5139 18.4705V40.2352C20.5139 41.5293 21.5727 42.5293 22.808 42.5293H47.9257C49.2198 42.5293 50.2198 41.4705 50.2198 40.2352V18.4705C50.2198 17.2352 49.161 16.1764 47.8668 16.1764ZM22.5727 18.4705C22.5727 18.3529 22.6315 18.294 22.7492 18.294H47.8668C47.9845 18.294 48.0433 18.3529 48.0433 18.4705V40.2352C48.0433 40.3529 47.9845 40.4117 47.8668 40.4117H22.808C22.6904 40.4117 22.6315 40.3529 22.6315 40.2352V18.4705H22.5727Z" fill="#213A1F"/>
<path d="M33.5727 50.4706L32.808 53.8235H37.808L36.9257 50.4706H33.5727Z" fill="#213A1F"/>
<path d="M52.5139 51.4117L49.9257 44.3529C49.6904 43.647 48.9845 43.1764 48.2198 43.1764H22.3962C21.6315 43.1764 20.9257 43.647 20.6904 44.3529L18.1021 51.4117C17.6904 52.5882 18.5727 53.8234 19.8668 53.8234H31.7492L32.6904 49.8234C32.7492 49.5882 32.9845 49.4117 33.2198 49.4117H37.3962C37.6315 49.4117 37.8668 49.5882 37.9257 49.8234L39.0433 53.8234H50.9845C52.0433 53.8234 52.9845 52.5882 52.5139 51.4117Z" fill="#213A1F"/>
<path d="M42.2198 29.3528C42.3963 29.1175 42.5728 28.9411 42.7492 28.7058C44.0434 27.0587 44.4551 25.5293 43.8081 24.4705C43.4551 23.8822 42.6904 23.1764 40.8081 23.1764C40.161 23.1764 39.5139 23.294 38.7492 23.4116C37.9845 21.0587 36.7492 19.5293 35.2787 19.5293C33.8081 19.5293 32.5728 20.9999 31.8081 23.4116C31.1022 23.2352 30.3963 23.1764 29.7492 23.1764C27.8669 23.1764 27.1022 23.8822 26.7492 24.4705C26.0434 25.7058 26.6904 27.5293 28.3375 29.3528C26.6904 31.1764 26.0434 32.9999 26.7492 34.2352C27.1022 34.8234 27.8669 35.5293 29.7492 35.5293C30.3963 35.5293 31.0434 35.4116 31.8081 35.294C32.5728 37.6469 33.8081 39.1764 35.2787 39.1764C36.7492 39.1764 37.9845 37.7058 38.7492 35.294C39.4551 35.4705 40.161 35.5293 40.8081 35.5293C42.6904 35.5293 43.4551 34.8234 43.8081 34.2352C44.4551 33.1764 44.0434 31.6469 42.7492 29.9999C42.5728 29.8234 42.3963 29.5881 42.2198 29.3528ZM29.8081 34.5293C28.7492 34.5293 28.0434 34.2352 27.7492 33.7646C27.3375 32.9999 27.8669 31.6469 29.161 30.1764C29.7492 30.7058 30.3963 31.294 31.161 31.8234C31.2787 32.7058 31.3963 33.5881 31.5728 34.3528C30.9845 34.4705 30.3963 34.5293 29.8081 34.5293ZM31.0434 30.3528C30.6316 29.9999 30.2787 29.7058 29.9257 29.3528C30.2787 28.9999 30.6316 28.7058 31.0434 28.3528C31.0434 28.6469 31.0434 28.9999 31.0434 29.3528C31.0434 29.7058 31.0434 30.0587 31.0434 30.3528ZM31.161 26.9999C30.3963 27.5293 29.7492 28.0587 29.161 28.6469C27.8081 27.1175 27.2787 25.7646 27.7492 25.0587C28.0434 24.5881 28.7492 24.294 29.8081 24.294C30.3375 24.294 30.9257 24.3528 31.5728 24.4705C31.3963 25.2352 31.2787 26.0587 31.161 26.9999ZM38.3375 26.1764C38.0434 25.9999 37.7492 25.8234 37.5139 25.6469C37.2198 25.4705 36.9257 25.3528 36.6316 25.1764C37.1022 24.9999 37.5728 24.8234 38.0434 24.7058C38.161 25.1764 38.2786 25.6469 38.3375 26.1764ZM35.3375 20.6469C36.2198 20.6469 37.1022 21.7646 37.7492 23.7058C36.9845 23.9411 36.161 24.2352 35.3375 24.5881C34.5139 24.2352 33.6904 23.9411 32.9257 23.7058C33.5728 21.7646 34.4551 20.6469 35.3375 20.6469ZM32.6316 24.7058C33.1022 24.8234 33.5728 24.9999 34.0434 25.1764C33.7492 25.3528 33.4551 25.4705 33.161 25.6469C32.8669 25.8234 32.5728 25.9999 32.3375 26.1764C32.3963 25.6469 32.5139 25.1764 32.6316 24.7058ZM32.3375 32.5881C32.6316 32.7646 32.8669 32.9411 33.161 33.1175C33.4551 33.294 33.7492 33.4116 34.0434 33.5881C33.5728 33.7646 33.1022 33.9411 32.6316 34.0587C32.5139 33.5881 32.3963 33.1175 32.3375 32.5881ZM35.3375 38.1175C34.4551 38.1175 33.5728 36.9999 32.9257 35.0587C33.6904 34.8234 34.5139 34.5293 35.3375 34.1764C36.161 34.5293 36.9845 34.8234 37.7492 35.0587C37.1022 36.9999 36.2198 38.1175 35.3375 38.1175ZM38.0434 34.0587C37.5728 33.9411 37.1022 33.7646 36.6316 33.5881C36.9257 33.4116 37.2198 33.294 37.5139 33.1175C37.8081 32.9411 38.1022 32.7646 38.3375 32.5881C38.2786 33.1175 38.161 33.5881 38.0434 34.0587ZM38.5139 31.1764C38.0434 31.5293 37.5139 31.8234 36.9845 32.1764C36.4551 32.4705 35.9257 32.7646 35.3963 32.9999C34.8669 32.7646 34.3375 32.4705 33.8081 32.1764C33.2787 31.8822 32.7492 31.5293 32.2787 31.1764C32.2198 30.5881 32.2198 29.9999 32.2198 29.3528C32.2198 28.7058 32.2198 28.1175 32.2787 27.5293C32.7492 27.1764 33.2787 26.8822 33.8081 26.5293C34.3375 26.2352 34.8669 25.9411 35.3963 25.7058C35.9257 25.9411 36.4551 26.2352 36.9845 26.5293C37.5139 26.8234 38.0434 27.1764 38.5139 27.5293C38.5728 28.1175 38.5728 28.7058 38.5728 29.3528C38.5728 29.9999 38.5728 30.6469 38.5139 31.1764ZM40.8669 24.2352C41.9257 24.2352 42.6316 24.5293 42.9257 24.9999C43.2787 25.6469 42.9257 26.7646 41.9257 28.0587C41.8081 28.2352 41.6316 28.4116 41.4551 28.5881C40.8669 27.9999 40.2198 27.4705 39.4551 26.9411C39.3375 26.0587 39.2198 25.1764 39.0434 24.4116C39.6904 24.294 40.2787 24.2352 40.8669 24.2352ZM39.6316 28.4116C40.0434 28.7646 40.3963 29.0587 40.7492 29.4116C40.3963 29.7646 40.0434 30.0587 39.6316 30.4116C39.6316 30.1175 39.6316 29.7646 39.6316 29.4116C39.6316 29.0587 39.6316 28.7058 39.6316 28.4116ZM42.9257 33.7646C42.6316 34.2352 41.9257 34.5293 40.8669 34.5293C40.3375 34.5293 39.7492 34.4705 39.1022 34.3528C39.2787 33.5881 39.4551 32.7058 39.5139 31.8234C40.2198 31.294 40.9257 30.7646 41.5139 30.1764C41.6904 30.3528 41.8081 30.5293 41.9845 30.7058C42.9257 31.9999 43.2787 33.1175 42.9257 33.7646Z" fill="#213A1F"/>
<path d="M37.3375 29.3528C37.3375 30.4704 36.4551 31.3528 35.3375 31.3528C34.2198 31.3528 33.3375 30.4704 33.3375 29.3528C33.3375 28.2351 34.2198 27.3528 35.3375 27.3528C36.4551 27.3528 37.3375 28.294 37.3375 29.3528Z" fill="#213A1F"/>
</svg>
