<svg width="70" height="70" viewBox="0 0 70 70" fill="none" xmlns="http://www.w3.org/2000/svg">
<rect width="70" height="70" rx="35" fill="#A1AF9F" fill-opacity="0.16"/>
<path d="M21.2035 20.0035C21.2018 20.0043 21.2002 20.0051 21.1986 20.0059C20.8769 20.0192 20.5728 20.156 20.3495 20.3879C20.1262 20.6199 20.001 20.929 20 21.2509V32.5069C20 39.7977 23.744 44.313 27.4161 46.8167C31.0882 49.3204 34.7712 49.9804 34.7712 49.9804C34.9205 50.0078 35.0735 50.0078 35.2228 49.9804C35.2228 49.9804 38.9034 49.3204 42.5754 46.8167C46.2475 44.313 49.994 39.7977 49.994 32.5069V21.2509C49.994 21.0379 49.9395 20.8283 49.8358 20.6423C49.732 20.4562 49.5824 20.2997 49.4012 20.1877C49.22 20.0757 49.0131 20.0118 48.8003 20.0022C48.5875 19.9927 48.3757 20.0376 48.1851 20.1329C43.4838 22.4835 39.0144 22.4312 35.6915 20.2159C35.4857 20.078 35.2435 20.0044 34.9958 20.0044C34.748 20.0044 34.5059 20.078 34.3001 20.2159C30.9771 22.4312 26.5077 22.4835 21.8064 20.1329C21.6194 20.0401 21.4121 19.9956 21.2035 20.0035ZM35.0007 22.4959C38.6016 24.5898 43.035 24.545 47.4919 22.8279V32.5069C47.4919 38.9645 44.3666 42.5658 41.1645 44.7491C38.0782 46.8534 35.2192 47.3725 35.0007 47.4148C34.7891 47.3739 31.9197 46.856 28.8295 44.7491C25.6274 42.5658 22.4997 38.9645 22.4997 32.5069V22.8279C26.9597 24.5462 31.3984 24.5941 35.0007 22.4959ZM34.9982 25.0029C34.9567 25.0016 34.9152 25.0024 34.8737 25.0054C34.7455 25.0198 34.6204 25.0544 34.5027 25.1079C31.9076 26.23 29.2788 26.6255 26.4104 26.2357C26.2352 26.2122 26.0572 26.227 25.8881 26.2789C25.719 26.3308 25.5628 26.4188 25.4299 26.5369C25.2971 26.655 25.1906 26.8005 25.1176 26.9636C25.0446 27.1268 25.0068 27.3039 25.0067 27.4831V32.6827C25.0067 38.2738 27.5928 41.1408 30.2161 42.9549C32.4312 44.4868 34.1751 44.8354 34.7028 44.9639C34.893 45.0101 35.0912 45.0101 35.2814 44.9639C35.8104 44.8351 37.5492 44.4867 39.7657 42.9549C42.3907 41.1408 44.9824 38.2739 44.9824 32.6827V27.4831C44.9823 27.3041 44.9445 27.1273 44.8717 26.9643C44.7988 26.8013 44.6926 26.656 44.56 26.5379C44.4274 26.4199 44.2715 26.3319 44.1027 26.2797C43.9339 26.2276 43.7561 26.2126 43.5812 26.2357C40.7101 26.6259 38.0758 26.2311 35.4791 25.1079C35.3273 25.0407 35.1638 25.005 34.9982 25.0029ZM34.9909 27.4831C37.3768 28.4416 39.9073 28.6782 42.5047 28.5376V32.6827C42.5047 37.5608 40.7135 39.2658 38.3743 40.8824C36.6247 42.0915 35.7175 42.2277 34.9909 42.3959C34.264 42.2276 33.3573 42.0908 31.6099 40.8824C29.2736 39.2667 27.4869 37.563 27.4869 32.6827V28.5376C30.0815 28.6775 32.6079 28.4402 34.9909 27.4831ZM34.9738 29.9877C34.6436 29.9935 34.3291 30.1297 34.0991 30.3667C33.869 30.6036 33.742 30.9219 33.7459 31.2522V33.7519H31.2462C31.2064 33.75 31.1665 33.75 31.1266 33.7519C30.8003 33.7748 30.496 33.9246 30.2788 34.1691C30.0615 34.4136 29.9487 34.7335 29.9643 35.0602C29.9799 35.3869 30.1228 35.6945 30.3624 35.9172C30.602 36.1398 30.9192 36.2599 31.2462 36.2516H33.7459V38.7537C33.7422 38.9202 33.7718 39.0857 33.833 39.2406C33.8941 39.3955 33.9856 39.5365 34.102 39.6556C34.2185 39.7746 34.3575 39.8692 34.511 39.9338C34.6644 39.9983 34.8293 40.0316 34.9958 40.0316C35.1623 40.0316 35.3271 39.9983 35.4806 39.9338C35.6341 39.8692 35.7731 39.7746 35.8895 39.6556C36.0059 39.5365 36.0974 39.3955 36.1586 39.2406C36.2197 39.0857 36.2493 38.9202 36.2456 38.7537V36.2516H38.7478C38.9142 36.2553 39.0798 36.2257 39.2346 36.1645C39.3895 36.1034 39.5306 36.0119 39.6496 35.8955C39.7687 35.779 39.8633 35.64 39.9278 35.4865C39.9924 35.3331 40.0257 35.1682 40.0257 35.0017C40.0257 34.8352 39.9924 34.6704 39.9278 34.5169C39.8633 34.3634 39.7687 34.2244 39.6496 34.108C39.5306 33.9916 39.3895 33.9001 39.2346 33.8389C39.0798 33.7778 38.9142 33.7482 38.7478 33.7519H36.2456V31.2522C36.2476 31.0849 36.216 30.919 36.1527 30.7642C36.0894 30.6095 35.9956 30.4689 35.8771 30.351C35.7585 30.2331 35.6174 30.1402 35.4623 30.0778C35.3071 30.0154 35.141 29.9847 34.9738 29.9877Z" fill="#213A1F"/>
</svg>
