<svg width="19" height="19" viewBox="0 0 19 19" fill="none" xmlns="http://www.w3.org/2000/svg">
<path d="M14.1167 5.81268C14.6763 5.44962 15.0469 4.95408 15.2284 4.32385C14.684 4.62908 14.1416 4.83842 13.5999 4.95408C13.113 4.40071 12.4965 4.11963 11.7574 4.11963C11.035 4.11963 10.4247 4.38753 9.92669 4.90869C9.43143 5.43352 9.18138 6.07106 9.18138 6.81548C9.18138 7.04165 9.2084 7.24368 9.26242 7.41496C7.13177 7.3381 5.36823 6.40411 3.97874 4.60639C3.74323 5.0463 3.62548 5.49427 3.62548 5.95761C3.62548 6.9099 4.00575 7.66456 4.76492 8.21866C4.332 8.17987 3.95034 8.06422 3.62548 7.87464C3.62548 8.55464 3.81457 9.12265 4.19346 9.62258C4.57374 10.1174 5.06207 10.4329 5.65846 10.5676C5.44235 10.6261 5.21446 10.6539 4.98034 10.6539C4.76422 10.6539 4.61114 10.6349 4.5204 10.5932C4.67972 11.1473 4.98034 11.5967 5.41464 11.9407C5.84756 12.2862 6.34559 12.4685 6.90527 12.4846C5.98263 13.2495 4.92769 13.6279 3.73422 13.6279C3.44192 13.6279 3.23481 13.6235 3.10944 13.6001C4.2849 14.4067 5.59335 14.8071 7.04103 14.8071C8.52265 14.8071 9.8318 14.4104 10.9712 13.6169C12.1107 12.8279 12.9516 11.8544 13.4919 10.7081C14.0349 9.56329 14.3037 8.37164 14.3037 7.12729V6.78473C14.8287 6.36751 15.2533 5.89758 15.5782 5.37862C15.1072 5.59309 14.6202 5.73875 14.1167 5.81268Z" fill="#213A1F"/>
</svg>
