<svg width="113" height="113" viewBox="0 0 113 113" fill="none" xmlns="http://www.w3.org/2000/svg">
<g filter="url(#filter0_d_926_304)">
<rect x="10" y="6" width="93" height="93" rx="20" fill="#FAFAFA"/>
</g>
<path d="M70.572 55.1609H42.4275C41.0995 55.1607 39.8063 54.737 38.7357 53.9515C37.665 53.166 36.8728 52.0595 36.474 50.7929C36.0753 49.5262 36.0909 48.1654 36.5185 46.9083C36.9461 45.6511 37.7634 44.563 38.8517 43.8022C38.2524 42.6703 37.9399 41.4087 37.9417 40.128C37.9417 35.7917 41.4685 32.2666 45.8031 32.2666C47.2019 32.2668 48.5754 32.64 49.7819 33.3479C50.1102 31.799 50.9823 30.4189 52.2402 29.4573C53.498 28.4958 55.0586 28.0163 56.6393 28.1057C58.2201 28.1952 59.7166 28.8476 60.858 29.9449C61.9994 31.0421 62.7102 32.5118 62.8618 34.0878C63.348 33.9908 63.8426 33.9422 64.3384 33.9427C68.4739 33.9427 71.8384 37.3067 71.8384 41.4422C71.8386 41.8919 71.7985 42.3407 71.7183 42.7831C73.2475 43.0689 74.6149 43.9153 75.5526 45.1566C76.4903 46.3979 76.9306 47.9447 76.7874 49.4937C76.6441 51.0428 75.9276 52.4825 74.7782 53.5308C73.6288 54.5792 72.1293 55.1605 70.5737 55.1609H70.572ZM45.8031 33.8232C44.6611 33.8233 43.5406 34.1335 42.5611 34.7208C41.5817 35.3081 40.7802 36.1503 40.2421 37.1576C39.704 38.1649 39.4496 39.2994 39.506 40.44C39.5624 41.5806 39.9275 42.6844 40.5623 43.6337C40.6233 43.7247 40.6643 43.8276 40.6828 43.9356C40.7013 44.0435 40.6967 44.1542 40.6695 44.2603C40.6423 44.3664 40.5929 44.4656 40.5247 44.5513C40.4566 44.637 40.371 44.7074 40.2738 44.7578C39.3414 45.2404 38.598 46.0221 38.163 46.9776C37.728 47.9332 37.6266 49.0071 37.8749 50.0272C38.1232 51.0473 38.707 51.9545 39.5325 52.6031C40.3581 53.2518 41.3776 53.6044 42.4275 53.6043H70.572C71.7999 53.6023 72.9779 53.1183 73.8525 52.2565C74.7271 51.3947 75.2284 50.2239 75.2485 48.9962C75.2686 47.7685 74.8059 46.582 73.96 45.692C73.1141 44.802 71.9526 44.2797 70.7254 44.2374C70.6055 44.2335 70.4881 44.2018 70.3825 44.1449C70.2768 44.088 70.1857 44.0075 70.1163 43.9096C70.0469 43.8117 70.0011 43.699 69.9825 43.5805C69.9638 43.4619 69.9729 43.3407 70.0089 43.2262C70.3388 42.173 70.3692 41.0487 70.0966 39.9791C69.824 38.9096 69.2593 37.937 68.4655 37.1701C67.6717 36.4032 66.6802 35.8723 65.6019 35.6367C64.5236 35.4011 63.4011 35.4702 62.3598 35.8362C62.2384 35.8791 62.1083 35.8911 61.9812 35.8713C61.854 35.8516 61.7337 35.8005 61.6311 35.7229C61.5285 35.6452 61.4467 35.5433 61.3931 35.4263C61.3396 35.3093 61.3158 35.1808 61.3241 35.0524C61.3313 34.9356 61.3352 34.83 61.3352 34.7188C61.3422 34.0486 61.2163 33.3836 60.9647 32.7623C60.713 32.1411 60.3407 31.5759 59.8692 31.0994C59.3977 30.623 58.8365 30.2448 58.2179 29.9867C57.5993 29.7285 56.9357 29.5956 56.2654 29.5956C55.5951 29.5956 54.9315 29.7285 54.3129 29.9867C53.6943 30.2448 53.1331 30.623 52.6616 31.0994C52.1901 31.5759 51.8178 32.1411 51.5662 32.7623C51.3145 33.3836 51.1886 34.0486 51.1956 34.7188V34.7488C51.1963 34.8981 51.1541 35.0444 51.0739 35.1704C50.9938 35.2963 50.8791 35.3966 50.7436 35.4592C50.608 35.5217 50.4574 35.544 50.3095 35.5233C50.1617 35.5027 50.0229 35.4399 49.9097 35.3426C48.7664 34.3616 47.3095 33.8226 45.8031 33.8232Z" fill="#6E7A6C" fill-opacity="0.5"/>
<path d="M46.6319 65.687H42.7994C42.5929 65.687 42.395 65.605 42.249 65.459C42.1031 65.3131 42.0211 65.1151 42.0211 64.9087C42.0211 64.7023 42.1031 64.5043 42.249 64.3583C42.395 64.2124 42.5929 64.1304 42.7994 64.1304H45.8536V54.3821C45.8536 54.1757 45.9356 53.9777 46.0816 53.8318C46.2276 53.6858 46.4255 53.6038 46.6319 53.6038C46.8384 53.6038 47.0363 53.6858 47.1823 53.8318C47.3282 53.9777 47.4102 54.1757 47.4102 54.3821V64.9087C47.4102 65.1151 47.3282 65.3131 47.1823 65.459C47.0363 65.605 46.8384 65.687 46.6319 65.687Z" fill="#6E7A6C" fill-opacity="0.5"/>
<path d="M39.5388 68.947C38.74 68.947 37.9591 68.7101 37.295 68.2663C36.6308 67.8225 36.1131 67.1917 35.8074 66.4537C35.5017 65.7157 35.4218 64.9036 35.5776 64.1202C35.7334 63.3367 36.1181 62.6171 36.6829 62.0522C37.2478 61.4874 37.9674 61.1027 38.7509 60.9469C39.5343 60.791 40.3464 60.871 41.0844 61.1767C41.8224 61.4824 42.4532 62.0001 42.897 62.6643C43.3408 63.3284 43.5777 64.1093 43.5777 64.9081C43.5765 65.9789 43.1506 67.0055 42.3934 67.7627C41.6362 68.5199 40.6096 68.9458 39.5388 68.947ZM39.5388 62.4259C39.0479 62.4259 38.568 62.5715 38.1598 62.8442C37.7516 63.117 37.4334 63.5046 37.2455 63.9582C37.0577 64.4118 37.0085 64.9109 37.1043 65.3924C37.2001 65.8739 37.4365 66.3162 37.7836 66.6633C38.1308 67.0105 38.5731 67.2469 39.0546 67.3427C39.5361 67.4384 40.0352 67.3893 40.4887 67.2014C40.9423 67.0135 41.33 66.6954 41.6027 66.2872C41.8755 65.879 42.0211 65.3991 42.0211 64.9081C42.0203 64.25 41.7586 63.6191 41.2932 63.1537C40.8279 62.6884 40.1969 62.4266 39.5388 62.4259ZM70.2001 65.687H66.3675C66.1611 65.687 65.9631 65.605 65.8171 65.459C65.6712 65.3131 65.5892 65.1151 65.5892 64.9087V54.3821C65.5892 54.1757 65.6712 53.9777 65.8171 53.8318C65.9631 53.6858 66.1611 53.6038 66.3675 53.6038C66.5739 53.6038 66.7719 53.6858 66.9178 53.8318C67.0638 53.9777 67.1458 54.1757 67.1458 54.3821V64.1304H70.2001C70.4065 64.1304 70.6045 64.2124 70.7504 64.3583C70.8964 64.5043 70.9784 64.7023 70.9784 64.9087C70.9784 65.1151 70.8964 65.3131 70.7504 65.459C70.6045 65.605 70.4065 65.687 70.2001 65.687Z" fill="#6E7A6C" fill-opacity="0.5"/>
<path d="M73.4606 68.9469C72.6618 68.9468 71.881 68.7098 71.2169 68.2659C70.5528 67.8221 70.0352 67.1913 69.7296 66.4532C69.424 65.7152 69.3441 64.9032 69.5 64.1198C69.6559 63.3363 70.0406 62.6167 70.6055 62.052C71.1703 61.4872 71.89 61.1026 72.6734 60.9468C73.4569 60.791 74.2689 60.871 75.0069 61.1767C75.7448 61.4824 76.3756 62.0001 76.8194 62.6642C77.2631 63.3284 77.5 64.1093 77.5 64.908C77.4988 65.9789 77.0728 67.0056 76.3155 67.7628C75.5582 68.52 74.5315 68.9458 73.4606 68.9469ZM73.4606 62.4258C72.9697 62.4259 72.4898 62.5716 72.0817 62.8444C71.6736 63.1172 71.3555 63.5049 71.1677 63.9585C70.9799 64.4121 70.9308 64.9112 71.0267 65.3926C71.1225 65.8741 71.359 66.3164 71.7061 66.6634C72.0533 67.0105 72.4956 67.2469 72.9771 67.3426C73.4586 67.4383 73.9576 67.3892 74.4112 67.2013C74.8647 67.0134 75.2524 66.6952 75.5251 66.287C75.7978 65.8788 75.9434 65.399 75.9434 64.908C75.9426 64.2498 75.6808 63.6188 75.2153 63.1535C74.7499 62.6881 74.1188 62.4264 73.4606 62.4258ZM56.4997 76.905C55.7007 76.9051 54.9197 76.6683 54.2553 76.2245C53.591 75.7807 53.0731 75.1498 52.7673 74.4117C52.4615 73.6736 52.3815 72.8613 52.5373 72.0777C52.6932 71.2941 53.0779 70.5743 53.6429 70.0094C54.2078 69.4444 54.9276 69.0597 55.7112 68.9038C56.4948 68.748 57.3071 68.828 58.0452 69.1338C58.7833 69.4396 59.4142 69.9575 59.858 70.6218C60.3018 71.2862 60.5386 72.0672 60.5385 72.8662C60.5374 73.937 60.1115 74.9636 59.3543 75.7208C58.5971 76.478 57.5705 76.9038 56.4997 76.905ZM56.4997 70.3834C56.0086 70.3833 55.5285 70.5288 55.1202 70.8016C54.7118 71.0743 54.3935 71.462 54.2055 71.9157C54.0175 72.3693 53.9683 72.8686 54.064 73.3502C54.1597 73.8319 54.3961 74.2743 54.7434 74.6216C55.0906 74.9689 55.5329 75.2054 56.0146 75.3012C56.4962 75.3971 56.9954 75.3479 57.4491 75.16C57.9028 74.9721 58.2906 74.6539 58.5635 74.2456C58.8363 73.8373 58.9819 73.3573 58.9819 72.8662C58.9812 72.208 58.7195 71.577 58.2541 71.1116C57.7888 70.6462 57.1579 70.3843 56.4997 70.3834Z" fill="#6E7A6C" fill-opacity="0.5"/>
<path d="M56.4997 70.3835C56.2933 70.3835 56.0953 70.3015 55.9493 70.1555C55.8034 70.0095 55.7214 69.8116 55.7214 69.6052V54.3821C55.7214 54.1757 55.8034 53.9777 55.9493 53.8318C56.0953 53.6858 56.2933 53.6038 56.4997 53.6038C56.7061 53.6038 56.9041 53.6858 57.05 53.8318C57.196 53.9777 57.278 54.1757 57.278 54.3821V69.6052C57.278 69.8116 57.196 70.0095 57.05 70.1555C56.9041 70.3015 56.7061 70.3835 56.4997 70.3835ZM45.0108 44.3787C44.8866 44.3786 44.7642 44.3487 44.6539 44.2916C44.5436 44.2345 44.4486 44.1518 44.3768 44.0505C44.3049 43.9492 44.2584 43.8321 44.241 43.7091C44.2237 43.5862 44.236 43.4608 44.277 43.3436C44.6345 42.4272 45.1691 41.5903 45.8503 40.8808C46.8938 39.8045 48.72 38.6532 51.4924 39.2819C51.6897 39.3313 51.8599 39.456 51.9664 39.6293C52.0729 39.8026 52.1074 40.0107 52.0624 40.209C52.0174 40.4074 51.8966 40.5803 51.7257 40.6906C51.5549 40.801 51.3476 40.8401 51.1483 40.7996C47.2123 39.9101 45.803 43.6999 45.7447 43.8617C45.6907 44.0131 45.5912 44.1441 45.4598 44.2366C45.3284 44.3292 45.1716 44.3788 45.0108 44.3787ZM56.6059 49.2781C56.4814 49.2782 56.3588 49.2484 56.2482 49.1912C56.1377 49.1341 56.0424 49.0512 55.9705 48.9497C55.8986 48.8481 55.852 48.7308 55.8348 48.6075C55.8176 48.4843 55.8302 48.3587 55.8715 48.2413C56.229 47.3252 56.7636 46.4885 57.4448 45.7791C58.4883 44.7028 60.3145 43.5515 63.0869 44.1802C63.1885 44.2009 63.285 44.2416 63.3706 44.3001C63.4562 44.3585 63.5293 44.4335 63.5856 44.5206C63.6419 44.6076 63.6802 44.7051 63.6982 44.8072C63.7163 44.9093 63.7138 45.0139 63.6909 45.115C63.668 45.2161 63.6251 45.3117 63.5647 45.396C63.5044 45.4803 63.4278 45.5517 63.3395 45.606C63.2512 45.6603 63.1529 45.6964 63.0504 45.7122C62.948 45.7279 62.8434 45.7231 62.7428 45.6979C61.0828 45.3221 59.6763 45.7135 58.5622 46.8654C58.0382 47.414 57.6232 48.0571 57.3391 48.7605C57.2853 48.912 57.1859 49.043 57.0546 49.1357C56.9233 49.2283 56.7666 49.2781 56.6059 49.2781Z" fill="#6E7A6C" fill-opacity="0.5"/>
<defs>
<filter id="filter0_d_926_304" x="0" y="0" width="113" height="113" filterUnits="userSpaceOnUse" color-interpolation-filters="sRGB">
<feFlood flood-opacity="0" result="BackgroundImageFix"/>
<feColorMatrix in="SourceAlpha" type="matrix" values="0 0 0 0 0 0 0 0 0 0 0 0 0 0 0 0 0 0 127 0" result="hardAlpha"/>
<feOffset dy="4"/>
<feGaussianBlur stdDeviation="5"/>
<feComposite in2="hardAlpha" operator="out"/>
<feColorMatrix type="matrix" values="0 0 0 0 0 0 0 0 0 0 0 0 0 0 0 0 0 0 0.05 0"/>
<feBlend mode="normal" in2="BackgroundImageFix" result="effect1_dropShadow_926_304"/>
<feBlend mode="normal" in="SourceGraphic" in2="effect1_dropShadow_926_304" result="shape"/>
</filter>
</defs>
</svg>
