<svg width="113" height="113" viewBox="0 0 113 113" fill="none" xmlns="http://www.w3.org/2000/svg">
<g filter="url(#filter0_d_926_303)">
<rect x="10" y="6" width="93" height="93" rx="20" fill="#FAFAFA"/>
</g>
<path d="M57.3958 33.7332V31H55.6042V33.7332C45.9471 34.191 38.191 41.9471 37.7332 51.6042H35V53.3958H37.7332C38.191 63.0529 45.9471 70.809 55.6042 71.2668V74H57.3958V71.2668C67.0529 70.809 74.809 63.0529 75.2668 53.3958H78V51.6042H75.2668C74.809 41.9471 67.0529 34.191 57.3958 33.7332ZM57.3958 69.4751V66.8333H55.6042V69.4751C46.9352 69.021 39.979 62.0648 39.5249 53.3958H42.1667V51.6042H39.5249C39.979 42.9352 46.9352 35.979 55.6042 35.5249V38.1667H57.3958V35.5249C66.0648 35.979 73.021 42.9352 73.4751 51.6042H70.8333V53.3958H73.4751C73.021 62.0648 66.0648 69.021 57.3958 69.4751Z" fill="#6E7A6C" fill-opacity="0.5"/>
<path d="M54.1841 51.79C53.9958 51.6017 53.7404 51.4959 53.4741 51.4959C53.2078 51.4959 52.9524 51.6017 52.7641 51.79C52.5758 51.9783 52.47 52.2337 52.47 52.5C52.47 52.7663 52.5758 53.0217 52.7641 53.21L55.7641 56.21C55.8575 56.3027 55.9683 56.376 56.0902 56.4258C56.212 56.4755 56.3425 56.5008 56.4741 56.5C56.611 56.4957 56.7455 56.4632 56.8694 56.4047C56.9932 56.3463 57.1037 56.263 57.1941 56.16L64.1941 48.16C64.3557 47.9593 64.4336 47.704 64.4116 47.4473C64.3896 47.1905 64.2693 46.9522 64.0759 46.782C63.8825 46.6118 63.6308 46.5228 63.3733 46.5336C63.1159 46.5444 62.8726 46.6542 62.6941 46.84L56.4741 54.04L54.1841 51.79Z" fill="#6E7A6C" fill-opacity="0.5"/>
<path d="M65.4741 51.5C65.2088 51.5 64.9545 51.6054 64.7669 51.7929C64.5794 51.9804 64.4741 52.2348 64.4741 52.5C64.4741 54.6217 63.6312 56.6566 62.1309 58.1569C60.6306 59.6571 58.5958 60.5 56.4741 60.5C54.8941 60.4993 53.3498 60.0308 52.0358 59.1535C50.7218 58.2763 49.697 57.0297 49.0905 55.5708C48.4841 54.1119 48.3232 52.5061 48.6281 50.9559C48.9331 49.4057 49.6902 47.9805 50.8041 46.86C51.5448 46.1094 52.4277 45.514 53.4013 45.1088C54.3749 44.7036 55.4195 44.4966 56.4741 44.5C57.1135 44.504 57.7506 44.5778 58.3741 44.72C58.5045 44.7604 58.6419 44.7736 58.7776 44.7588C58.9134 44.744 59.0447 44.7016 59.1635 44.6342C59.2822 44.5667 59.3859 44.4757 59.4681 44.3666C59.5503 44.2576 59.6093 44.1328 59.6414 44.0001C59.6736 43.8674 59.6782 43.7295 59.655 43.5949C59.6319 43.4603 59.5814 43.3319 59.5066 43.2176C59.4319 43.1033 59.3346 43.0055 59.2206 42.9302C59.1067 42.855 58.9785 42.8038 58.8441 42.78C58.0672 42.5972 57.2721 42.5033 56.4741 42.5C54.4984 42.5103 52.57 43.1055 50.9324 44.2107C49.2947 45.3158 48.021 46.8813 47.2722 48.7095C46.5233 50.5378 46.3328 52.5469 46.7247 54.4834C47.1166 56.4198 48.0733 58.1968 49.4741 59.59C51.3307 61.4475 53.8477 62.4939 56.4741 62.5C59.1262 62.5 61.6698 61.4464 63.5451 59.5711C65.4205 57.6957 66.4741 55.1522 66.4741 52.5C66.4741 52.2348 66.3687 51.9804 66.1812 51.7929C65.9936 51.6054 65.7393 51.5 65.4741 51.5Z" fill="#6E7A6C" fill-opacity="0.5"/>
<defs>
<filter id="filter0_d_926_303" x="0" y="0" width="113" height="113" filterUnits="userSpaceOnUse" color-interpolation-filters="sRGB">
<feFlood flood-opacity="0" result="BackgroundImageFix"/>
<feColorMatrix in="SourceAlpha" type="matrix" values="0 0 0 0 0 0 0 0 0 0 0 0 0 0 0 0 0 0 127 0" result="hardAlpha"/>
<feOffset dy="4"/>
<feGaussianBlur stdDeviation="5"/>
<feComposite in2="hardAlpha" operator="out"/>
<feColorMatrix type="matrix" values="0 0 0 0 0 0 0 0 0 0 0 0 0 0 0 0 0 0 0.05 0"/>
<feBlend mode="normal" in2="BackgroundImageFix" result="effect1_dropShadow_926_303"/>
<feBlend mode="normal" in="SourceGraphic" in2="effect1_dropShadow_926_303" result="shape"/>
</filter>
</defs>
</svg>
