<svg width="49" height="49" viewBox="0 0 49 49" fill="none" xmlns="http://www.w3.org/2000/svg">
<path d="M42.57 20.8C41.8486 17.2815 40.1176 14.0495 37.5886 11.4992C35.0596 8.94894 31.8423 7.19086 28.33 6.43999C28.1966 5.51937 27.7361 4.67761 27.0327 4.06882C26.3293 3.46004 25.4302 3.12497 24.5 3.12497C23.5698 3.12497 22.6707 3.46004 21.9673 4.06882C21.2639 4.67761 20.8034 5.51937 20.67 6.43999C17.157 7.19149 13.9388 8.94958 11.4083 11.4996C8.87776 14.0496 7.14447 17.2813 6.42001 20.8C5.46725 20.9067 4.58804 21.3633 3.9527 22.0813C3.31736 22.7992 2.97113 23.7275 2.98109 24.6861C2.99105 25.6448 3.35649 26.5656 4.00661 27.2702C4.65673 27.9749 5.54524 28.4131 6.50001 28.5C7.27022 31.9482 9.01075 35.1042 11.5162 37.5955C14.0216 40.0868 17.1874 41.8094 20.64 42.56C20.7103 43.5357 21.1475 44.4486 21.8636 45.1151C22.5798 45.7815 23.5217 46.152 24.5 46.152C25.4783 46.152 26.4202 45.7815 27.1364 45.1151C27.8525 44.4486 28.2897 43.5357 28.36 42.56C31.8131 41.8105 34.9795 40.0883 37.4851 37.5968C39.9908 35.1054 41.7309 31.9488 42.5 28.5C43.4454 28.4011 44.3214 27.9576 44.9608 27.2543C45.6002 26.5509 45.9584 25.6368 45.9671 24.6862C45.9757 23.7357 45.6342 22.8152 45.0077 22.1003C44.3812 21.3854 43.5135 20.9261 42.57 20.81V20.8ZM24.5 4.64999C24.9755 4.64801 25.4409 4.78734 25.8371 5.0503C26.2333 5.31325 26.5425 5.68797 26.7254 6.12692C26.9083 6.56587 26.9566 7.04926 26.8644 7.51574C26.7721 7.98222 26.5433 8.41078 26.207 8.74703C25.8708 9.08327 25.4422 9.31206 24.9758 9.40434C24.5093 9.49663 24.0259 9.44826 23.5869 9.26537C23.148 9.08248 22.7733 8.77332 22.5103 8.37711C22.2474 7.9809 22.108 7.51551 22.11 7.03999C22.11 6.40612 22.3618 5.79822 22.81 5.35001C23.2582 4.90179 23.8661 4.64999 24.5 4.64999ZM21.18 9.04999C21.5753 9.71174 22.1591 10.2404 22.8568 10.5682C23.5544 10.8959 24.3341 11.0079 25.0958 10.8897C25.8575 10.7715 26.5665 10.4286 27.1321 9.90485C27.6976 9.3811 28.0938 8.7004 28.27 7.94999C31.2509 8.63448 33.992 10.1105 36.2042 12.2224C38.4165 14.3344 40.018 17.004 40.84 19.95C38.5844 18.0177 35.8831 16.6774 32.98 16.05C32.5233 14.3068 31.8515 12.6272 30.98 11.05C30.8816 10.8833 30.7227 10.7611 30.5363 10.7089C30.3499 10.6567 30.1506 10.6786 29.98 10.77C29.815 10.87 29.6949 11.0297 29.6447 11.2159C29.5944 11.4021 29.6178 11.6006 29.71 11.77C30.3972 13.0181 30.9503 14.3354 31.36 15.7C29.1582 15.2811 26.9213 15.0735 24.68 15.08C22.3281 15.0778 19.9822 15.3191 17.68 15.8C18.2658 13.2934 19.4689 10.9731 21.18 9.04999ZM32.61 24.77C32.6121 27.1681 32.3505 29.5591 31.83 31.9C29.3835 32.4637 26.8806 32.7455 24.37 32.74C21.9716 32.7476 19.58 32.486 17.24 31.96C16.668 29.5148 16.3827 27.0112 16.39 24.5C16.3879 22.1019 16.6495 19.7109 17.17 17.37C19.6153 16.7962 22.1183 16.5043 24.63 16.5C27.0284 16.4924 29.42 16.754 31.76 17.28C32.3343 19.735 32.6196 22.2487 32.61 24.77ZM19.95 8.12999C17.9373 10.4073 16.5398 13.161 15.89 16.13C14.1294 16.5819 12.4327 17.2539 10.84 18.13C10.6733 18.2283 10.5511 18.3873 10.4989 18.5737C10.4468 18.7601 10.4686 18.9594 10.56 19.13C10.6601 19.2948 10.819 19.4154 11.0047 19.4674C11.1904 19.5194 11.3889 19.4989 11.56 19.41C12.8102 18.7352 14.1317 18.2019 15.5 17.82C15.0843 20.0221 14.88 22.259 14.89 24.5C14.8923 26.8517 15.1335 29.1971 15.61 31.5C13.1163 30.878 10.8169 29.6441 8.92001 27.91C9.5576 27.5148 10.0662 26.9424 10.3837 26.2628C10.7012 25.5832 10.8138 24.8258 10.7077 24.0832C10.6016 23.3406 10.2815 22.645 9.78639 22.0815C9.29131 21.5179 8.64275 21.1108 7.92001 20.91C8.57304 17.887 10.0384 15.0994 12.1582 12.8474C14.278 10.5955 16.972 8.96443 19.95 8.12999ZM4.50001 24.64C4.49803 24.1649 4.6371 23.6999 4.89961 23.3039C5.16212 22.9079 5.53625 22.5987 5.97462 22.4156C6.41298 22.2324 6.89585 22.1834 7.36206 22.2749C7.82827 22.3664 8.25685 22.5942 8.59349 22.9294C8.93014 23.2646 9.15971 23.6923 9.25313 24.1581C9.34655 24.6239 9.29961 25.107 9.11826 25.5461C8.9369 25.9852 8.6293 26.3607 8.23441 26.6248C7.83952 26.889 7.37511 27.03 6.90001 27.03C6.58531 27.0313 6.27344 26.9705 5.98232 26.8509C5.6912 26.7314 5.42654 26.5556 5.20355 26.3335C4.98056 26.1115 4.80362 25.8475 4.68289 25.5569C4.56215 25.2663 4.5 24.9547 4.50001 24.64ZM24.5 44.64C24.0273 44.64 23.5652 44.4998 23.1722 44.2372C22.7792 43.9746 22.4728 43.6013 22.2919 43.1646C22.111 42.7279 22.0637 42.2473 22.1559 41.7837C22.2481 41.3201 22.4758 40.8943 22.81 40.56C23.1443 40.2258 23.5701 39.9981 24.0337 39.9059C24.4974 39.8137 24.9779 39.861 25.4146 40.0419C25.8513 40.2228 26.2246 40.5291 26.4872 40.9222C26.7498 41.3152 26.89 41.7773 26.89 42.25C26.8874 42.8821 26.6344 43.4875 26.1865 43.9335C25.7385 44.3796 25.1321 44.63 24.5 44.63V44.64ZM27.81 40.23C27.4264 39.5902 26.8656 39.0752 26.1955 38.7474C25.5254 38.4196 24.7747 38.2931 24.0341 38.383C23.2936 38.4729 22.5949 38.7755 22.0228 39.2541C21.4506 39.7328 21.0293 40.367 20.81 41.08C17.8721 40.4188 15.1616 38.9917 12.9538 36.9438C10.7461 34.8958 9.11971 32.3 8.24001 29.42C10.4872 31.3023 13.1565 32.6129 16.02 33.24C16.4767 34.9832 17.1485 36.6627 18.02 38.24C18.086 38.3543 18.1807 38.4495 18.2946 38.5161C18.4086 38.5828 18.538 38.6186 18.67 38.62C18.8022 38.6227 18.9326 38.5899 19.0478 38.5252C19.163 38.4604 19.2588 38.3659 19.3251 38.2516C19.3915 38.1373 19.426 38.0073 19.4251 37.8751C19.4242 37.7429 19.3879 37.6134 19.32 37.5C18.6269 36.2513 18.0736 34.9299 17.67 33.56C19.8708 33.9874 22.1081 34.1984 24.35 34.19C26.7017 34.1873 29.047 33.946 31.35 33.47C30.7522 35.9803 29.5352 38.3009 27.81 40.22V40.23ZM29.4 40.76C31.2203 38.5405 32.4914 35.923 33.11 33.12C34.8534 32.6641 36.5331 31.9922 38.11 31.12C38.2767 31.0216 38.3989 30.8627 38.4511 30.6763C38.5033 30.4899 38.4814 30.2906 38.39 30.12C38.2899 29.9552 38.131 29.8346 37.9453 29.7826C37.7596 29.7306 37.5611 29.7511 37.39 29.84C36.1579 30.5338 34.8534 31.0905 33.5 31.5C33.9225 29.2985 34.1334 27.0617 34.13 24.82C34.1278 22.4683 33.8865 20.1229 33.41 17.82C35.9072 18.4385 38.2081 19.6766 40.1 21.42C39.4616 21.8106 38.9506 22.3783 38.629 23.0541C38.3075 23.7299 38.1893 24.4846 38.2889 25.2263C38.3885 25.968 38.7016 26.6648 39.19 27.2318C39.6785 27.7989 40.3212 28.2117 41.04 28.42C40.3486 31.3141 38.9097 33.9761 36.867 36.1398C34.8244 38.3036 32.2496 39.8932 29.4 40.75V40.76ZM42.1 27.03C41.6277 27.028 41.1666 26.8862 40.7749 26.6224C40.3832 26.3585 40.0784 25.9846 39.8991 25.5477C39.7197 25.1108 39.6738 24.6306 39.7672 24.1676C39.8605 23.7047 40.0889 23.2798 40.4235 22.9465C40.7582 22.6133 41.1841 22.3866 41.6474 22.2952C42.1107 22.2038 42.5908 22.2517 43.0269 22.4329C43.463 22.6141 43.8357 22.9204 44.0979 23.3132C44.3601 23.706 44.5 24.1677 44.5 24.64C44.4974 25.2748 44.2433 25.8827 43.7935 26.3306C43.3437 26.7785 42.7348 27.03 42.1 27.03Z" fill="#6E7A6C" fill-opacity="0.5"/>
</svg>
