<svg width="31" height="29" viewBox="0 0 31 29" fill="none" xmlns="http://www.w3.org/2000/svg">
<path d="M30.9995 7.47461C30.9983 7.35075 30.9646 7.22935 30.9018 7.12238L28.5642 0.47956C28.5147 0.339151 28.4225 0.217494 28.3005 0.131409C28.1785 0.0453246 28.0326 -0.000936 27.8829 -0.000976549H3.88311C3.74528 -0.00100292 3.61033 0.0382293 3.49423 0.112078C3.37812 0.185926 3.28573 0.291299 3.22797 0.415729L0.145895 7.05142C0.054006 7.17228 0.00316025 7.31907 0.000710402 7.47056L0 7.52309C0 9.19749 1.25609 10.6201 2.9954 11.1329V24.7134H2.62404C1.86673 24.7134 1.2506 25.3261 1.2506 26.0792V27.6321C1.2506 28.3852 1.86673 28.9978 2.62404 28.9978H28.376C29.1335 28.9978 29.7497 28.3852 29.7497 27.6321V26.0792C29.7497 25.3261 29.1335 24.7134 28.376 24.7134H28.0046V11.1327C29.7364 10.6219 30.9892 9.20789 31 7.53626V7.5116L30.9995 7.47461ZM27.3708 1.43402L29.2472 6.76546H23.5065L22.7185 1.43402H27.3708ZM16.2216 1.43402H21.2597L22.0478 6.76546H16.2216V1.43402ZM22.0297 8.24059C21.6487 9.20404 20.5218 9.90426 19.1947 9.90426C17.8676 9.90426 16.7457 9.20731 16.3621 8.24059H22.0297ZM10.4417 1.43402H14.7784V6.76546H9.05343L10.4417 1.43402ZM14.6534 8.20681C14.2858 9.18754 13.1482 9.90426 11.8055 9.90426C10.4732 9.90426 9.34264 9.19852 8.96586 8.23616L14.6534 8.20681ZM4.34469 1.43402H8.95081L7.56258 6.76546H1.86835L4.34469 1.43402ZM1.56325 8.20052H7.26659C6.90156 9.18452 5.76185 9.90426 4.41631 9.90426C3.07077 9.90426 1.9257 9.18118 1.56325 8.20052ZM28.3064 27.5628H2.69379V26.1484H28.3064V27.5628ZM13.2389 24.7134H8.83236V16.1349H13.2389V24.7134ZM14.6821 24.7134V15.8658C14.6821 15.2229 14.1562 14.6999 13.5095 14.6999H8.56188C7.91521 14.6999 7.3893 15.2229 7.3893 15.8658V24.7134H4.43872V11.3387C5.97226 11.3321 7.32355 10.6471 8.10973 9.61009C8.89921 10.6506 10.2612 11.3393 11.8056 11.3393C13.3501 11.3393 14.7118 10.6506 15.5013 9.61323C16.2913 10.6521 17.6518 11.3393 19.1948 11.3393C20.7379 11.3393 22.0996 10.6514 22.8893 9.61156C23.6752 10.6463 25.0271 11.3319 26.5615 11.3386V24.7134L14.6821 24.7134ZM27.2842 9.8369L27.283 9.83677C27.208 9.83677 27.137 9.85141 27.069 9.87254C26.9082 9.89373 26.7462 9.90433 26.584 9.90426C25.2568 9.90426 24.1297 9.20404 23.7487 8.24059H29.4189C29.1072 9.02892 28.2958 9.6404 27.2842 9.8369ZM23.0567 14.6998H18.1036C17.4584 14.6998 16.9336 15.2217 16.9336 15.8632V20.1759C16.9336 20.8174 17.4584 21.3392 18.1036 21.3392H23.0567C23.702 21.3392 24.2267 20.8175 24.2267 20.1759V15.8632C24.2267 15.2217 23.702 14.6998 23.0567 14.6998ZM22.7835 19.9042H18.3768V16.1349H22.7835V19.9042Z" fill="#213A1F"/>
</svg>
