<svg width="18" height="14" viewBox="0 0 18 14" fill="none" xmlns="http://www.w3.org/2000/svg">
<path d="M17.3077 0.213379H0.692308C0.508696 0.213379 0.332605 0.284019 0.202772 0.409758C0.0729393 0.535497 0 0.706035 0 0.883857V12.282C0 12.6376 0.145879 12.9787 0.405544 13.2302C0.66521 13.4817 1.01739 13.6229 1.38462 13.6229H16.6154C16.9826 13.6229 17.3348 13.4817 17.5945 13.2302C17.8541 12.9787 18 12.6376 18 12.282V0.883857C18 0.706035 17.9271 0.535497 17.7972 0.409758C17.6674 0.284019 17.4913 0.213379 17.3077 0.213379ZM15.5276 1.55434L9 7.34978L2.4724 1.55434H15.5276ZM16.6154 12.282H1.38462V2.40836L8.53183 8.75359C8.65955 8.86715 8.82662 8.93015 9 8.93015C9.17338 8.93015 9.34045 8.86715 9.46817 8.75359L16.6154 2.40836V12.282Z" fill="#8F8F8F"/>
</svg>
